<svg xmlns="http://www.w3.org/2000/svg" viewBox="0 0 240 52" width="240" height="52">
 
  <!-- Mark -->
  <rect x="0" y="0" width="52" height="52" rx="10" fill="#C8102E"></rect>
 
  <!-- Highlight -->
  <path d="M 0 10 Q 0 0 10 0 L 42 0 Q 52 0 52 10 L 52 15 Q 52 5 42 5 L 10 5 Q 0 5 0 15 Z" fill="#ffffff" opacity="0.09"></path>
 
  <!-- Handle -->
  <path d="M 18 22 Q 18 10 26 10 Q 34 10 34 22" fill="none" stroke="white" stroke-width="3" stroke-linecap="round"></path>
 
  <!-- Bag -->
  <path d="M 10 22 L 42 22 L 42 40 Q 42 44 38 44 L 14 44 Q 10 44 10 40 Z" fill="white"></path>
 
  <!-- Clasp -->
  <rect x="23" y="19" width="6" height="5" rx="1.5" fill="white" stroke="#C8102E" stroke-width="0.6" opacity="0.5"></rect>
 
  <!-- Seam -->
  <line x1="10" y1="32" x2="42" y2="32" stroke="#C8102E" stroke-width="0.75" opacity="0.2"></line>
 
  <!-- Wordmark -->
  <text x="68" y="38" font-size="38" letter-spacing="-1.5">
    <tspan font-family="'DM Sans', 'Helvetica Neue', Helvetica, Arial, sans-serif" font-style="italic" font-weight="600" fill="#0F0F13">Cart</tspan><tspan dx="2.5" font-family="'DM Sans', 'Helvetica Neue', Helvetica, Arial, sans-serif" font-weight="800" fill="#C8102E">ix</tspan>
  </text>
 
</svg>